<?xml version="1.0" standalone="no"?>
<!DOCTYPE svg PUBLIC "-//W3C//DTD SVG 20010904//EN"
 "http://www.w3.org/TR/2001/REC-SVG-20010904/DTD/svg10.dtd">
<svg version="1.0" xmlns="http://www.w3.org/2000/svg"
 width="700.000000pt" height="700.000000pt" viewBox="0 0 700.000000 700.000000"
 preserveAspectRatio="xMidYMid meet">
<metadata>
Created by potrace 1.11, written by Peter Selinger 2001-2013
</metadata>
<g transform="translate(0.000000,700.000000) scale(0.100000,-0.100000)"
fill="#000000" stroke="none">
<path d="M1840 5244 c-131 -35 -230 -139 -254 -264 -4 -19 -18 -86 -32 -147
l-26 -113 -402 0 c-397 0 -402 0 -446 -22 -57 -30 -82 -65 -87 -125 -7 -63 14
-112 63 -149 l37 -29 380 -3 379 -3 -6 -22 c-3 -12 -15 -66 -27 -119 l-22 -98
-231 0 c-241 0 -293 -6 -335 -37 -50 -38 -66 -71 -66 -133 0 -63 16 -95 69
-134 25 -19 45 -21 255 -26 l228 -5 -36 -155 -36 -155 -477 -5 c-464 -5 -477
-6 -505 -26 -54 -40 -75 -83 -71 -145 5 -68 35 -114 92 -140 38 -17 73 -19
462 -19 l421 0 -65 -272 c-78 -324 -82 -378 -38 -475 33 -73 104 -144 173
-175 26 -11 81 -23 122 -27 l76 -6 6 -45 c40 -270 285 -479 561 -480 91 0 160
16 245 56 165 79 291 248 319 432 l7 42 907 0 908 0 17 -75 c25 -112 77 -208
154 -286 79 -78 150 -120 251 -148 328 -91 657 126 715 471 l6 38 167 2 166 3
202 615 c137 416 203 630 203 660 1 28 -8 64 -23 95 -47 99 -418 741 -443 768
-15 15 -47 37 -72 50 -45 21 -58 22 -422 27 l-376 5 59 215 c52 188 59 224 55
282 -8 126 -93 241 -215 290 l-57 23 -1440 2 c-1244 2 -1447 0 -1495 -13z
m2880 -324 c0 -21 -289 -1062 -457 -1645 -96 -335 -183 -636 -191 -667 l-16
-58 -781 0 -780 0 -28 45 c-86 136 -293 245 -467 245 -69 0 -173 -26 -246 -60
-70 -34 -188 -137 -225 -196 -21 -34 -21 -34 -96 -34 -73 0 -75 1 -69 23 3 12
36 151 73 310 l67 287 420 0 c389 0 424 2 462 19 53 24 86 71 92 130 6 61 -16
111 -64 147 l-37 29 -399 3 c-372 2 -399 4 -394 20 3 9 19 78 36 152 17 74 34
138 36 142 3 4 134 8 291 8 272 0 287 1 323 21 103 58 107 211 7 277 l-40 27
-252 3 -252 3 19 82 c10 45 23 99 29 120 l10 37 390 0 c430 0 431 0 485 62 37
42 49 93 35 146 -12 42 -61 95 -104 111 -18 7 -156 11 -378 11 -192 0 -349 3
-349 8 0 4 10 51 22 105 l21 97 1404 0 c939 0 1403 -3 1403 -10z m1038 -1123
l175 -309 -153 -469 -154 -469 -88 0 -87 0 -17 31 c-29 57 -140 156 -217 194
-77 38 -184 65 -257 65 -73 0 -180 -27 -257 -65 -77 -38 -188 -137 -217 -194
-12 -22 -24 -31 -41 -31 -14 0 -25 4 -25 9 0 22 416 1525 427 1544 2 4 169 6
370 5 l366 -3 175 -308z m-3651 -1310 c80 -42 132 -127 133 -216 0 -73 -17
-124 -57 -170 -87 -103 -253 -110 -347 -15 -51 51 -70 102 -70 179 0 107 46
179 144 225 53 24 146 23 197 -3z m2927 11 c59 -18 138 -99 155 -161 31 -110
-11 -225 -103 -282 -44 -27 -58 -30 -126 -30 -68 0 -82 3 -126 30 -63 40 -103
104 -111 178 -9 86 11 142 71 202 71 71 146 90 240 63z"/>
</g>
</svg>
